# xmcd CD database file
# Generated: Thu Oct 24 14:00:03 2002 by KSCD
# 
# Track frame offsets:
#       150
#       51189
#       71327
#       98107
#       124152
#       130348
#       156794
#       176389
#       205273
#       217665
#       244751
#
# Disc length: 3671 seconds
#
# Revision: 4
# Processed by: cddbd v1.4PL0 Copyright (c) Steve Scherf et al.
# Submitted via: Kscd 1.3.3
#
DISCID=930e550b
DTITLE=Talvin Singh - OK (all info) plur orange
DYEAR=1998
DGENRE=Drum Solo
TTITLE0=Traveller
TTITLE1=Butterfly
TTITLE2=Sutrix
TTITLE3=Mombasstic
TTITLE4=Decca
TTITLE5=Eclipse
TTITLE6=OK
TTITLE7=Light
TTITLE8=Disser/Point.Mento.B
TTITLE9=Soni
TTITLE10=Vikram The Vampire
EXTD=YEAR: 1998 ID3G: 122
EXTT0=
EXTT1=
EXTT2=
EXTT3=
EXTT4=
EXTT5=
EXTT6=
EXTT7=
EXTT8=
EXTT9=
EXTT10=
PLAYORDER=
